<svg xmlns="http://www.w3.org/2000/svg" width="1594" height="1074" style="cursor: move;"><g transform="translate(-1453.790629813916,-1038.1445760016459) scale(2.9444537243363866)"><path class="link" marker-end="" d="M733,527C767,527 767,447 801,447" style="stroke-width: 2; stroke-opacity: 1; stroke: rgb(80, 80, 80); fill: none;"></path><path class="link" marker-end="" d="M733,527C767,527 767,487 801,487" style="stroke-width: 2; stroke-opacity: 1; stroke: rgb(80, 80, 80); fill: none;"></path><path class="link" marker-end="" d="M733,527C767,527 767,527 801,527" style="stroke-width: 2; stroke-opacity: 1; stroke: rgb(80, 80, 80); fill: none;"></path><path class="link" marker-end="" d="M733,527C767,527 767,567 801,567" style="stroke-width: 2; stroke-opacity: 1; stroke: rgb(80, 80, 80); fill: none;"></path><path class="link" marker-end="" d="M733,527C767,527 767,607 801,607" style="stroke-width: 2; stroke-opacity: 1; stroke: rgb(80, 80, 80); fill: none;"></path><path class="link" marker-end="" d="M801,447C835,447 835,447 869,447" style="stroke-width: 2; stroke-opacity: 1; stroke: rgb(80, 80, 80); fill: none;"></path><path class="link" marker-end="" d="M801,487C835,487 835,447 869,447" style="stroke-width: 2; stroke-opacity: 1; stroke: rgb(80, 80, 80); fill: none;"></path><path class="link" marker-end="" d="M801,527C835,527 835,447 869,447" style="stroke-width: 2; stroke-opacity: 1; stroke: rgb(80, 80, 80); fill: none;"></path><path class="link" marker-end="" d="M801,567C835,567 835,447 869,447" style="stroke-width: 2; stroke-opacity: 1; stroke: rgb(80, 80, 80); fill: none;"></path><path class="link" marker-end="" d="M801,607C835,607 835,447 869,447" style="stroke-width: 2; stroke-opacity: 1; stroke: rgb(80, 80, 80); fill: none;"></path><path class="link" marker-end="" d="M801,447C835,447 835,487 869,487" style="stroke-width: 2; stroke-opacity: 1; stroke: rgb(80, 80, 80); fill: none;"></path><path class="link" marker-end="" d="M801,447C835,447 835,527 869,527" style="stroke-width: 2; stroke-opacity: 1; stroke: rgb(80, 80, 80); fill: none;"></path><path class="link" marker-end="" d="M801,447C835,447 835,567 869,567" style="stroke-width: 2; stroke-opacity: 1; stroke: rgb(80, 80, 80); fill: none;"></path><path class="link" marker-end="" d="M801,447C835,447 835,607 869,607" style="stroke-width: 2; stroke-opacity: 1; stroke: rgb(80, 80, 80); fill: none;"></path><path class="link" marker-end="" d="M801,487C835,487 835,487 869,487" style="stroke-width: 2; stroke-opacity: 1; stroke: rgb(80, 80, 80); fill: none;"></path><path class="link" marker-end="" d="M801,487C835,487 835,527 869,527" style="stroke-width: 2; stroke-opacity: 1; stroke: rgb(80, 80, 80); fill: none;"></path><path class="link" marker-end="" d="M801,487C835,487 835,567 869,567" style="stroke-width: 2; stroke-opacity: 1; stroke: rgb(80, 80, 80); fill: none;"></path><path class="link" marker-end="" d="M801,487C835,487 835,607 869,607" style="stroke-width: 2; stroke-opacity: 1; stroke: rgb(80, 80, 80); fill: none;"></path><path class="link" marker-end="" d="M801,527C835,527 835,487 869,487" style="stroke-width: 2; stroke-opacity: 1; stroke: rgb(80, 80, 80); fill: none;"></path><path class="link" marker-end="" d="M801,527C835,527 835,527 869,527" style="stroke-width: 2; stroke-opacity: 1; stroke: rgb(80, 80, 80); fill: none;"></path><path class="link" marker-end="" d="M801,527C835,527 835,567 869,567" style="stroke-width: 2; stroke-opacity: 1; stroke: rgb(80, 80, 80); fill: none;"></path><path class="link" marker-end="" d="M801,527C835,527 835,607 869,607" style="stroke-width: 2; stroke-opacity: 1; stroke: rgb(80, 80, 80); fill: none;"></path><path class="link" marker-end="" d="M801,567C835,567 835,487 869,487" style="stroke-width: 2; stroke-opacity: 1; stroke: rgb(80, 80, 80); fill: none;"></path><path class="link" marker-end="" d="M801,567C835,567 835,527 869,527" style="stroke-width: 2; stroke-opacity: 1; stroke: rgb(80, 80, 80); fill: none;"></path><path class="link" marker-end="" d="M801,567C835,567 835,567 869,567" style="stroke-width: 2; stroke-opacity: 1; stroke: rgb(80, 80, 80); fill: none;"></path><path class="link" marker-end="" d="M801,567C835,567 835,607 869,607" style="stroke-width: 2; stroke-opacity: 1; stroke: rgb(80, 80, 80); fill: none;"></path><path class="link" marker-end="" d="M801,607C835,607 835,487 869,487" style="stroke-width: 2; stroke-opacity: 1; stroke: rgb(80, 80, 80); fill: none;"></path><path class="link" marker-end="" d="M801,607C835,607 835,527 869,527" style="stroke-width: 2; stroke-opacity: 1; stroke: rgb(80, 80, 80); fill: none;"></path><path class="link" marker-end="" d="M801,607C835,607 835,567 869,567" style="stroke-width: 2; stroke-opacity: 1; stroke: rgb(80, 80, 80); fill: none;"></path><path class="link" marker-end="" d="M801,607C835,607 835,607 869,607" style="stroke-width: 2; stroke-opacity: 1; stroke: rgb(80, 80, 80); fill: none;"></path><path class="link" marker-end="" d="M869,447C903,447 903,527 937,527" style="stroke-width: 2; stroke-opacity: 1; stroke: rgb(80, 80, 80); fill: none;"></path><path class="link" marker-end="" d="M869,487C903,487 903,527 937,527" style="stroke-width: 2; stroke-opacity: 1; stroke: rgb(80, 80, 80); fill: none;"></path><path class="link" marker-end="" d="M869,527C903,527 903,527 937,527" style="stroke-width: 2; stroke-opacity: 1; stroke: rgb(80, 80, 80); fill: none;"></path><path class="link" marker-end="" d="M869,567C903,567 903,527 937,527" style="stroke-width: 2; stroke-opacity: 1; stroke: rgb(80, 80, 80); fill: none;"></path><path class="link" marker-end="" d="M869,607C903,607 903,527 937,527" style="stroke-width: 2; stroke-opacity: 1; stroke: rgb(80, 80, 80); fill: none;"></path><circle r="10" class="node" id="0_0" cx="733" cy="527" style="fill: rgb(242, 187, 216); stroke: rgb(51, 51, 51);"></circle><circle r="10" class="node" id="1_0" cx="801" cy="447" style="fill: rgb(242, 187, 216); stroke: rgb(51, 51, 51);"></circle><circle r="10" class="node" id="1_1" cx="801" cy="487" style="fill: rgb(242, 187, 216); stroke: rgb(51, 51, 51);"></circle><circle r="10" class="node" id="1_2" cx="801" cy="527" style="fill: rgb(242, 187, 216); stroke: rgb(51, 51, 51);"></circle><circle r="10" class="node" id="1_3" cx="801" cy="567" style="fill: rgb(242, 187, 216); stroke: rgb(51, 51, 51);"></circle><circle r="10" class="node" id="1_4" cx="801" cy="607" style="fill: rgb(242, 187, 216); stroke: rgb(51, 51, 51);"></circle><circle r="10" class="node" id="2_0" cx="869" cy="447" style="fill: rgb(242, 187, 216); stroke: rgb(51, 51, 51);"></circle><text class="text" dy=".35em" x="698" y="647" style="font-size: 12px;"></text><text class="text" dy=".35em" x="766" y="647" style="font-size: 12px;"></text><text class="text" dy=".35em" x="834" y="647" style="font-size: 12px;"></text><circle r="10" class="node" id="2_1" cx="869" cy="487" style="fill: rgb(242, 187, 216); stroke: rgb(51, 51, 51);"></circle><circle r="10" class="node" id="2_2" cx="869" cy="527" style="fill: rgb(242, 187, 216); stroke: rgb(51, 51, 51);"></circle><circle r="10" class="node" id="2_3" cx="869" cy="567" style="fill: rgb(242, 187, 216); stroke: rgb(51, 51, 51);"></circle><circle r="10" class="node" id="2_4" cx="869" cy="607" style="fill: rgb(242, 187, 216); stroke: rgb(51, 51, 51);"></circle><circle r="10" class="node" id="3_0" cx="937" cy="527" style="fill: rgb(242, 187, 216); stroke: rgb(51, 51, 51);"></circle><text class="text" dy=".35em" x="902" y="647" style="font-size: 12px;"></text></g><defs><marker id="arrow" viewBox="0 -5 10 10" markerWidth="7" markerHeight="7" orient="auto" refX="40"><path d="M0,-5L10,0L0,5" style="stroke: rgb(80, 80, 80); fill: none;"></path></marker></defs></svg>