<?xml version="1.0" encoding="UTF-8"?>
<svg xmlns="http://www.w3.org/2000/svg" xmlns:xlink="http://www.w3.org/1999/xlink" width="600" height="200" viewBox="0 0 600 200">
<rect x="-60" y="-20" width="720" height="240" fill="rgb(100%, 100%, 100%)" fill-opacity="1"/>
<path fill-rule="nonzero" fill="rgb(100%, 100%, 100%)" fill-opacity="1" d="M 16 184 L 584 184 L 584 16 L 16 16 Z M 16 184 "/>
<path fill-rule="nonzero" fill="rgb(100%, 0%, 0%)" fill-opacity="1" d="M 55.917969 163 C 55.917969 155.210938 49.605469 148.898438 41.816406 148.898438 C 34.03125 148.898438 27.71875 155.210938 27.71875 163 C 27.71875 170.785156 34.03125 177.097656 41.816406 177.097656 C 49.605469 177.097656 55.917969 170.785156 55.917969 163 Z M 55.917969 163 "/>
<path fill-rule="nonzero" fill="rgb(100%, 0%, 0%)" fill-opacity="1" d="M 102.859375 163 C 102.859375 155.210938 96.546875 148.898438 88.761719 148.898438 C 80.972656 148.898438 74.660156 155.210938 74.660156 163 C 74.660156 170.785156 80.972656 177.097656 88.761719 177.097656 C 96.546875 177.097656 102.859375 170.785156 102.859375 163 Z M 102.859375 163 "/>
<path fill-rule="nonzero" fill="rgb(100%, 0%, 0%)" fill-opacity="1" d="M 149.800781 163 C 149.800781 155.210938 143.488281 148.898438 135.703125 148.898438 C 127.914062 148.898438 121.601562 155.210938 121.601562 163 C 121.601562 170.785156 127.914062 177.097656 135.703125 177.097656 C 143.488281 177.097656 149.800781 170.785156 149.800781 163 Z M 149.800781 163 "/>
<path fill-rule="nonzero" fill="rgb(100%, 0%, 0%)" fill-opacity="1" d="M 196.746094 161.210938 C 196.746094 153.421875 190.433594 147.109375 182.644531 147.109375 C 174.855469 147.109375 168.542969 153.421875 168.542969 161.210938 C 168.542969 168.996094 174.855469 175.308594 182.644531 175.308594 C 190.433594 175.308594 196.746094 168.996094 196.746094 161.210938 Z M 196.746094 161.210938 "/>
<path fill-rule="nonzero" fill="rgb(100%, 0%, 0%)" fill-opacity="1" d="M 243.6875 137.171875 C 243.6875 129.382812 237.375 123.070312 229.585938 123.070312 C 221.800781 123.070312 215.488281 129.382812 215.488281 137.171875 C 215.488281 144.960938 221.800781 151.273438 229.585938 151.273438 C 237.375 151.273438 243.6875 144.960938 243.6875 137.171875 Z M 243.6875 137.171875 "/>
<path fill-rule="nonzero" fill="rgb(100%, 0%, 0%)" fill-opacity="1" d="M 290.628906 104.375 C 290.628906 96.589844 284.316406 90.277344 276.527344 90.277344 C 268.742188 90.277344 262.429688 96.589844 262.429688 104.375 C 262.429688 112.164062 268.742188 118.476562 276.527344 118.476562 C 284.316406 118.476562 290.628906 112.164062 290.628906 104.375 Z M 290.628906 104.375 "/>
<path fill-rule="nonzero" fill="rgb(100%, 0%, 0%)" fill-opacity="1" d="M 337.570312 73.1875 C 337.570312 65.402344 331.257812 59.089844 323.472656 59.089844 C 315.683594 59.089844 309.371094 65.402344 309.371094 73.1875 C 309.371094 80.976562 315.683594 87.289062 323.472656 87.289062 C 331.257812 87.289062 337.570312 80.976562 337.570312 73.1875 Z M 337.570312 73.1875 "/>
<path fill-rule="nonzero" fill="rgb(100%, 0%, 0%)" fill-opacity="1" d="M 384.511719 58.664062 C 384.511719 50.878906 378.199219 44.5625 370.414062 44.5625 C 362.625 44.5625 356.3125 50.878906 356.3125 58.664062 C 356.3125 66.453125 362.625 72.765625 370.414062 72.765625 C 378.199219 72.765625 384.511719 66.453125 384.511719 58.664062 Z M 384.511719 58.664062 "/>
<path fill-rule="nonzero" fill="rgb(100%, 0%, 0%)" fill-opacity="1" d="M 431.457031 159.824219 C 431.457031 152.039062 425.144531 145.726562 417.355469 145.726562 C 409.566406 145.726562 403.253906 152.039062 403.253906 159.824219 C 403.253906 167.613281 409.566406 173.925781 417.355469 173.925781 C 425.144531 173.925781 431.457031 167.613281 431.457031 159.824219 Z M 431.457031 159.824219 "/>
<path fill-rule="nonzero" fill="rgb(100%, 0%, 0%)" fill-opacity="1" d="M 478.398438 163 C 478.398438 155.210938 472.085938 148.898438 464.296875 148.898438 C 456.511719 148.898438 450.199219 155.210938 450.199219 163 C 450.199219 170.785156 456.511719 177.097656 464.296875 177.097656 C 472.085938 177.097656 478.398438 170.785156 478.398438 163 Z M 478.398438 163 "/>
<path fill-rule="nonzero" fill="rgb(100%, 0%, 0%)" fill-opacity="1" d="M 525.339844 163 C 525.339844 155.210938 519.027344 148.898438 511.238281 148.898438 C 503.453125 148.898438 497.140625 155.210938 497.140625 163 C 497.140625 170.785156 503.453125 177.097656 511.238281 177.097656 C 519.027344 177.097656 525.339844 170.785156 525.339844 163 Z M 525.339844 163 "/>
<path fill-rule="nonzero" fill="rgb(100%, 0%, 0%)" fill-opacity="1" d="M 572.28125 163 C 572.28125 155.210938 565.96875 148.898438 558.183594 148.898438 C 550.394531 148.898438 544.082031 155.210938 544.082031 163 C 544.082031 170.785156 550.394531 177.097656 558.183594 177.097656 C 565.96875 177.097656 572.28125 170.785156 572.28125 163 Z M 572.28125 163 "/>
<path fill="none" stroke-width="5" stroke-linecap="butt" stroke-linejoin="miter" stroke="rgb(100%, 0%, 0%)" stroke-opacity="1" stroke-miterlimit="2" d="M 41.816406 163 L 42.324219 162.996094 L 42.828125 163 L 164.976562 163 L 165.484375 162.996094 L 167.503906 162.996094 L 168.007812 162.992188 L 168.511719 162.992188 L 169.015625 162.984375 L 169.519531 162.980469 L 170.027344 162.972656 L 171.035156 162.949219 L 172.042969 162.910156 L 172.550781 162.882812 L 173.054688 162.855469 L 174.0625 162.777344 L 174.570312 162.730469 L 175.074219 162.675781 L 175.578125 162.617188 L 176.082031 162.550781 L 176.585938 162.480469 L 177.09375 162.402344 L 177.597656 162.320312 L 178.101562 162.234375 L 178.605469 162.140625 L 179.113281 162.042969 L 179.617188 161.9375 L 180.121094 161.828125 L 180.625 161.714844 L 181.128906 161.59375 L 181.636719 161.472656 L 182.140625 161.34375 L 182.644531 161.210938 L 183.148438 161.074219 L 183.652344 160.929688 L 184.160156 160.785156 L 185.167969 160.480469 L 185.671875 160.320312 L 186.179688 160.160156 L 187.1875 159.824219 L 187.691406 159.652344 L 188.195312 159.472656 L 188.703125 159.292969 L 189.207031 159.109375 L 189.710938 158.921875 L 190.214844 158.730469 L 190.71875 158.535156 L 191.226562 158.339844 L 192.234375 157.933594 L 192.738281 157.726562 L 193.246094 157.519531 L 194.757812 156.875 L 195.261719 156.652344 L 195.769531 156.429688 L 196.273438 156.203125 L 197.28125 155.742188 L 197.789062 155.507812 L 198.292969 155.273438 L 198.796875 155.035156 L 199.804688 154.550781 L 200.3125 154.304688 L 201.824219 153.554688 L 202.328125 153.296875 L 202.835938 153.042969 L 203.339844 152.78125 L 203.84375 152.523438 L 204.347656 152.257812 L 204.855469 151.996094 L 205.359375 151.726562 L 205.863281 151.460938 L 206.367188 151.1875 L 206.871094 150.917969 L 207.378906 150.644531 L 208.386719 150.089844 L 208.890625 149.808594 L 209.398438 149.527344 L 209.902344 149.246094 L 210.910156 148.675781 L 211.414062 148.386719 L 211.921875 148.097656 L 212.425781 147.808594 L 213.9375 146.929688 L 214.445312 146.632812 L 214.949219 146.332031 L 215.453125 146.035156 L 215.957031 145.734375 L 216.464844 145.429688 L 216.96875 145.128906 L 217.976562 144.519531 L 218.480469 144.210938 L 218.988281 143.902344 L 219.492188 143.59375 L 220.5 142.96875 L 221.007812 142.65625 L 221.511719 142.34375 L 222.519531 141.710938 L 223.023438 141.390625 L 223.53125 141.074219 L 224.539062 140.433594 L 225.042969 140.109375 L 225.546875 139.789062 L 226.054688 139.464844 L 226.558594 139.140625 L 227.0625 138.8125 L 227.566406 138.488281 L 228.074219 138.160156 L 229.082031 137.503906 L 230.089844 136.839844 L 230.597656 136.507812 L 231.605469 135.84375 L 232.109375 135.507812 L 232.617188 135.171875 L 234.128906 134.164062 L 234.632812 133.824219 L 235.140625 133.484375 L 235.644531 133.148438 L 236.148438 132.804688 L 237.15625 132.125 L 237.664062 131.78125 L 239.175781 130.75 L 239.683594 130.40625 L 240.1875 130.0625 L 241.195312 129.367188 L 241.699219 129.023438 L 242.207031 128.675781 L 242.710938 128.328125 L 243.214844 127.976562 L 243.71875 127.628906 L 244.226562 127.28125 L 245.738281 126.226562 L 246.242188 125.878906 L 246.75 125.523438 L 248.261719 124.46875 L 248.765625 124.113281 L 249.273438 123.761719 L 250.785156 122.695312 L 251.292969 122.339844 L 253.308594 120.917969 L 253.816406 120.5625 L 254.320312 120.203125 L 254.824219 119.847656 L 255.328125 119.488281 L 255.835938 119.132812 L 256.84375 118.414062 L 257.347656 118.058594 L 257.851562 117.699219 L 258.359375 117.339844 L 260.375 115.902344 L 260.882812 115.542969 L 262.394531 114.464844 L 262.902344 114.101562 L 264.414062 113.023438 L 264.917969 112.660156 L 265.425781 112.300781 L 266.433594 111.582031 L 266.9375 111.21875 L 267.441406 110.859375 L 267.949219 110.5 L 268.453125 110.136719 L 269.460938 109.417969 L 269.96875 109.054688 L 271.480469 107.976562 L 271.984375 107.613281 L 272.492188 107.253906 L 273.5 106.535156 L 274.003906 106.171875 L 274.511719 105.8125 L 276.527344 104.375 L 277.035156 104.015625 L 278.042969 103.296875 L 278.546875 102.941406 L 279.050781 102.582031 L 279.558594 102.222656 L 280.0625 101.867188 L 281.070312 101.148438 L 281.578125 100.792969 L 282.082031 100.4375 L 282.585938 100.078125 L 283.59375 99.367188 L 284.101562 99.011719 L 285.613281 97.945312 L 286.121094 97.589844 L 286.625 97.238281 L 287.128906 96.882812 L 287.632812 96.53125 L 288.136719 96.175781 L 288.644531 95.824219 L 290.660156 94.417969 L 291.167969 94.066406 L 291.671875 93.71875 L 292.175781 93.367188 L 292.679688 93.019531 L 293.1875 92.671875 L 295.203125 91.28125 L 295.710938 90.9375 L 296.214844 90.589844 L 297.222656 89.902344 L 297.730469 89.558594 L 298.234375 89.214844 L 298.738281 88.875 L 299.242188 88.53125 L 299.746094 88.191406 L 300.253906 87.851562 L 301.261719 87.171875 L 301.765625 86.835938 L 302.269531 86.496094 L 302.777344 86.160156 L 303.785156 85.488281 L 304.289062 85.15625 L 304.796875 84.820312 L 306.308594 83.824219 L 306.8125 83.496094 L 307.320312 83.164062 L 308.328125 82.507812 L 308.832031 82.183594 L 309.339844 81.855469 L 310.347656 81.207031 L 310.851562 80.886719 L 311.355469 80.5625 L 311.863281 80.242188 L 312.367188 79.921875 L 312.871094 79.605469 L 313.375 79.285156 L 313.878906 78.96875 L 314.386719 78.65625 L 314.890625 78.339844 L 315.898438 77.714844 L 316.40625 77.40625 L 316.910156 77.09375 L 317.414062 76.785156 L 317.917969 76.480469 L 318.421875 76.171875 L 318.929688 75.867188 L 319.433594 75.566406 L 319.9375 75.261719 L 320.441406 74.960938 L 320.949219 74.664062 L 322.460938 73.773438 L 322.964844 73.480469 L 323.472656 73.1875 L 324.984375 72.320312 L 325.488281 72.035156 L 325.996094 71.75 L 327.507812 70.90625 L 328.015625 70.628906 L 329.527344 69.808594 L 330.03125 69.539062 L 330.539062 69.269531 L 331.546875 68.738281 L 332.554688 68.214844 L 333.0625 67.957031 L 333.566406 67.699219 L 334.574219 67.191406 L 335.082031 66.941406 L 335.585938 66.691406 L 336.089844 66.449219 L 336.59375 66.203125 L 337.097656 65.964844 L 337.605469 65.722656 L 338.613281 65.253906 L 339.117188 65.023438 L 339.625 64.792969 L 340.128906 64.566406 L 340.632812 64.34375 L 341.640625 63.90625 L 342.148438 63.691406 L 342.652344 63.476562 L 343.660156 63.0625 L 344.164062 62.859375 L 344.671875 62.65625 L 345.679688 62.265625 L 346.183594 62.074219 L 346.691406 61.886719 L 347.195312 61.703125 L 347.699219 61.523438 L 348.707031 61.171875 L 349.214844 61.003906 L 349.71875 60.835938 L 350.726562 60.515625 L 351.234375 60.363281 L 351.738281 60.210938 L 352.746094 59.921875 L 353.25 59.785156 L 353.757812 59.652344 L 354.261719 59.523438 L 355.269531 59.28125 L 355.773438 59.167969 L 356.28125 59.058594 L 356.785156 58.953125 L 357.289062 58.855469 L 357.792969 58.761719 L 358.300781 58.675781 L 358.804688 58.59375 L 359.308594 58.515625 L 359.8125 58.445312 L 360.316406 58.382812 L 360.824219 58.324219 L 361.328125 58.269531 L 361.832031 58.226562 L 362.335938 58.1875 L 362.84375 58.15625 L 363.347656 58.132812 L 363.851562 58.113281 L 364.355469 58.105469 L 364.859375 58.101562 L 365.367188 58.109375 L 365.871094 58.121094 L 366.375 58.144531 L 366.878906 58.175781 L 367.382812 58.214844 L 367.890625 58.265625 L 368.394531 58.324219 L 368.898438 58.394531 L 369.402344 58.472656 L 369.910156 58.5625 L 370.414062 58.664062 L 370.917969 58.777344 L 371.421875 58.898438 L 371.925781 59.035156 L 372.433594 59.183594 L 372.9375 59.34375 L 373.441406 59.519531 L 373.945312 59.707031 L 374.453125 59.914062 L 374.957031 60.132812 L 375.460938 60.367188 L 375.964844 60.617188 L 376.46875 60.882812 L 376.976562 61.171875 L 377.480469 61.476562 L 377.984375 61.800781 L 378.488281 62.144531 L 378.992188 62.511719 L 379.5 62.898438 L 380.003906 63.3125 L 380.507812 63.75 L 381.011719 64.214844 L 381.519531 64.703125 L 382.023438 65.226562 L 382.527344 65.777344 L 383.03125 66.359375 L 383.535156 66.980469 L 384.042969 67.636719 L 384.546875 68.332031 L 385.050781 69.066406 L 385.554688 69.847656 L 386.0625 70.675781 L 386.566406 71.554688 L 387.070312 72.488281 L 387.574219 73.480469 L 388.078125 74.539062 L 388.585938 75.660156 L 389.089844 76.859375 L 389.59375 78.132812 L 390.097656 79.496094 L 390.601562 80.949219 L 391.109375 82.503906 L 391.613281 84.167969 L 392.117188 85.941406 L 392.621094 87.84375 L 393.128906 89.871094 L 393.632812 92.03125 L 394.136719 94.328125 L 394.640625 96.761719 L 395.144531 99.324219 L 395.652344 102 L 396.15625 104.773438 L 396.660156 107.617188 L 397.164062 110.492188 L 397.671875 113.371094 L 398.175781 116.210938 L 398.679688 118.984375 L 399.183594 121.664062 L 399.6875 124.226562 L 400.195312 126.660156 L 400.699219 128.960938 L 401.203125 131.121094 L 401.707031 133.148438 L 402.210938 135.050781 L 402.71875 136.824219 L 403.222656 138.488281 L 403.726562 140.042969 L 404.230469 141.496094 L 404.738281 142.859375 L 405.242188 144.136719 L 405.746094 145.332031 L 406.25 146.457031 L 406.753906 147.511719 L 407.261719 148.503906 L 407.765625 149.4375 L 408.269531 150.320312 L 408.773438 151.148438 L 409.28125 151.929688 L 409.785156 152.664062 L 410.289062 153.359375 L 410.792969 154.015625 L 411.296875 154.632812 L 411.804688 155.21875 L 412.308594 155.769531 L 412.8125 156.289062 L 413.316406 156.78125 L 413.820312 157.246094 L 414.328125 157.683594 L 414.832031 158.09375 L 415.335938 158.484375 L 415.839844 158.851562 L 416.347656 159.195312 L 416.851562 159.519531 L 417.355469 159.824219 L 417.859375 160.109375 L 418.363281 160.378906 L 418.871094 160.628906 L 419.375 160.863281 L 419.878906 161.082031 L 420.382812 161.285156 L 420.886719 161.476562 L 421.394531 161.652344 L 421.898438 161.8125 L 422.402344 161.960938 L 422.90625 162.097656 L 423.414062 162.21875 L 423.917969 162.332031 L 424.421875 162.433594 L 424.925781 162.523438 L 425.429688 162.601562 L 425.9375 162.671875 L 426.441406 162.734375 L 426.945312 162.789062 L 427.449219 162.832031 L 427.957031 162.867188 L 428.460938 162.898438 L 428.964844 162.925781 L 429.46875 162.945312 L 429.972656 162.960938 L 430.480469 162.96875 L 430.984375 162.980469 L 432.496094 162.992188 L 433.003906 162.996094 L 435.023438 162.996094 L 435.527344 163 L 558.183594 163 "/>
</svg>
