<?xml version="1.0" encoding="UTF-8"?>
<svg xmlns="http://www.w3.org/2000/svg" xmlns:xlink="http://www.w3.org/1999/xlink" width="600" height="200" viewBox="0 0 600 200">
<rect x="-60" y="-20" width="720" height="240" fill="rgb(100%, 100%, 100%)" fill-opacity="1"/>
<path fill-rule="nonzero" fill="rgb(100%, 100%, 100%)" fill-opacity="1" d="M 16 184 L 584 184 L 584 16 L 16 16 Z M 16 184 "/>
<path fill-rule="nonzero" fill="rgb(100%, 0%, 0%)" fill-opacity="1" d="M 55.917969 163 C 55.917969 155.210938 49.605469 148.898438 41.816406 148.898438 C 34.03125 148.898438 27.71875 155.210938 27.71875 163 C 27.71875 170.789062 34.03125 177.101562 41.816406 177.101562 C 49.605469 177.101562 55.917969 170.789062 55.917969 163 Z M 55.917969 163 "/>
<path fill-rule="nonzero" fill="rgb(100%, 0%, 0%)" fill-opacity="1" d="M 102.859375 127.765625 C 102.859375 119.980469 96.546875 113.667969 88.761719 113.667969 C 80.972656 113.667969 74.660156 119.980469 74.660156 127.765625 C 74.660156 135.554688 80.972656 141.867188 88.761719 141.867188 C 96.546875 141.867188 102.859375 135.554688 102.859375 127.765625 Z M 102.859375 127.765625 "/>
<path fill-rule="nonzero" fill="rgb(100%, 0%, 0%)" fill-opacity="1" d="M 149.800781 63.191406 C 149.800781 55.402344 143.488281 49.089844 135.703125 49.089844 C 127.914062 49.089844 121.601562 55.402344 121.601562 63.191406 C 121.601562 70.976562 127.914062 77.289062 135.703125 77.289062 C 143.488281 77.289062 149.800781 70.976562 149.800781 63.191406 Z M 149.800781 63.191406 "/>
<path fill-rule="nonzero" fill="rgb(100%, 0%, 0%)" fill-opacity="1" d="M 196.746094 44.640625 C 196.746094 36.851562 190.433594 30.539062 182.644531 30.539062 C 174.855469 30.539062 168.542969 36.851562 168.542969 44.640625 C 168.542969 52.425781 174.855469 58.738281 182.644531 58.738281 C 190.433594 58.738281 196.746094 52.425781 196.746094 44.640625 Z M 196.746094 44.640625 "/>
<path fill-rule="nonzero" fill="rgb(100%, 0%, 0%)" fill-opacity="1" d="M 243.6875 93.765625 C 243.6875 85.980469 237.375 79.667969 229.585938 79.667969 C 221.800781 79.667969 215.488281 85.980469 215.488281 93.765625 C 215.488281 101.554688 221.800781 107.867188 229.585938 107.867188 C 237.375 107.867188 243.6875 101.554688 243.6875 93.765625 Z M 243.6875 93.765625 "/>
<path fill-rule="nonzero" fill="rgb(100%, 0%, 0%)" fill-opacity="1" d="M 290.628906 153.234375 C 290.628906 145.445312 284.316406 139.132812 276.527344 139.132812 C 268.742188 139.132812 262.429688 145.445312 262.429688 153.234375 C 262.429688 161.019531 268.742188 167.332031 276.527344 167.332031 C 284.316406 167.332031 290.628906 161.019531 290.628906 153.234375 Z M 290.628906 153.234375 "/>
<path fill-rule="nonzero" fill="rgb(100%, 0%, 0%)" fill-opacity="1" d="M 337.570312 163 C 337.570312 155.210938 331.257812 148.898438 323.472656 148.898438 C 315.683594 148.898438 309.371094 155.210938 309.371094 163 C 309.371094 170.789062 315.683594 177.101562 323.472656 177.101562 C 331.257812 177.101562 337.570312 170.789062 337.570312 163 Z M 337.570312 163 "/>
<path fill-rule="nonzero" fill="rgb(100%, 0%, 0%)" fill-opacity="1" d="M 384.511719 163 C 384.511719 155.210938 378.199219 148.898438 370.414062 148.898438 C 362.625 148.898438 356.3125 155.210938 356.3125 163 C 356.3125 170.789062 362.625 177.101562 370.414062 177.101562 C 378.199219 177.101562 384.511719 170.789062 384.511719 163 Z M 384.511719 163 "/>
<path fill-rule="nonzero" fill="rgb(100%, 0%, 0%)" fill-opacity="1" d="M 431.457031 163 C 431.457031 155.210938 425.144531 148.898438 417.355469 148.898438 C 409.566406 148.898438 403.253906 155.210938 403.253906 163 C 403.253906 170.789062 409.566406 177.101562 417.355469 177.101562 C 425.144531 177.101562 431.457031 170.789062 431.457031 163 Z M 431.457031 163 "/>
<path fill-rule="nonzero" fill="rgb(100%, 0%, 0%)" fill-opacity="1" d="M 478.398438 163 C 478.398438 155.210938 472.085938 148.898438 464.296875 148.898438 C 456.511719 148.898438 450.199219 155.210938 450.199219 163 C 450.199219 170.789062 456.511719 177.101562 464.296875 177.101562 C 472.085938 177.101562 478.398438 170.789062 478.398438 163 Z M 478.398438 163 "/>
<path fill-rule="nonzero" fill="rgb(100%, 0%, 0%)" fill-opacity="1" d="M 525.339844 163 C 525.339844 155.210938 519.027344 148.898438 511.238281 148.898438 C 503.453125 148.898438 497.140625 155.210938 497.140625 163 C 497.140625 170.789062 503.453125 177.101562 511.238281 177.101562 C 519.027344 177.101562 525.339844 170.789062 525.339844 163 Z M 525.339844 163 "/>
<path fill-rule="nonzero" fill="rgb(100%, 0%, 0%)" fill-opacity="1" d="M 572.28125 163 C 572.28125 155.210938 565.96875 148.898438 558.183594 148.898438 C 550.394531 148.898438 544.082031 155.210938 544.082031 163 C 544.082031 170.789062 550.394531 177.101562 558.183594 177.101562 C 565.96875 177.101562 572.28125 170.789062 572.28125 163 Z M 572.28125 163 "/>
<path fill="none" stroke-width="5" stroke-linecap="butt" stroke-linejoin="miter" stroke="rgb(100%, 0%, 0%)" stroke-opacity="1" stroke-miterlimit="2" d="M 41.816406 163 L 42.324219 162.996094 L 42.828125 162.980469 L 43.332031 162.960938 L 43.835938 162.925781 L 44.34375 162.886719 L 44.847656 162.835938 L 45.351562 162.777344 L 45.855469 162.710938 L 46.359375 162.632812 L 46.867188 162.546875 L 47.371094 162.449219 L 47.875 162.347656 L 48.378906 162.234375 L 48.882812 162.109375 L 49.390625 161.980469 L 49.894531 161.839844 L 50.398438 161.691406 L 50.902344 161.53125 L 51.410156 161.367188 L 51.914062 161.191406 L 52.417969 161.007812 L 52.921875 160.8125 L 53.425781 160.609375 L 53.933594 160.398438 L 54.4375 160.179688 L 54.941406 159.953125 L 55.445312 159.714844 L 55.953125 159.46875 L 56.457031 159.21875 L 56.960938 158.953125 L 57.464844 158.683594 L 57.96875 158.402344 L 58.476562 158.117188 L 58.980469 157.820312 L 59.484375 157.515625 L 59.988281 157.203125 L 60.492188 156.882812 L 61 156.554688 L 61.503906 156.214844 L 62.007812 155.871094 L 62.511719 155.519531 L 63.019531 155.15625 L 63.523438 154.789062 L 64.027344 154.410156 L 64.53125 154.027344 L 65.035156 153.632812 L 65.542969 153.234375 L 66.046875 152.824219 L 66.550781 152.410156 L 67.054688 151.988281 L 67.5625 151.554688 L 68.066406 151.117188 L 68.570312 150.671875 L 69.074219 150.222656 L 69.578125 149.761719 L 70.085938 149.296875 L 70.589844 148.820312 L 71.09375 148.339844 L 71.597656 147.855469 L 72.101562 147.359375 L 72.609375 146.859375 L 73.113281 146.351562 L 73.617188 145.835938 L 74.121094 145.316406 L 74.628906 144.789062 L 75.132812 144.257812 L 76.140625 143.171875 L 76.644531 142.617188 L 77.152344 142.058594 L 77.65625 141.496094 L 78.160156 140.925781 L 78.664062 140.351562 L 79.171875 139.769531 L 79.675781 139.183594 L 80.179688 138.589844 L 80.683594 137.992188 L 81.1875 137.390625 L 81.695312 136.78125 L 82.199219 136.167969 L 82.703125 135.550781 L 83.207031 134.925781 L 83.710938 134.296875 L 84.21875 133.664062 L 84.722656 133.027344 L 85.730469 131.738281 L 86.238281 131.085938 L 86.742188 130.429688 L 87.246094 129.769531 L 87.75 129.105469 L 88.253906 128.4375 L 88.761719 127.765625 L 89.769531 126.414062 L 90.273438 125.730469 L 90.78125 125.042969 L 91.285156 124.355469 L 92.292969 122.964844 L 92.796875 122.265625 L 93.304688 121.5625 L 93.808594 120.859375 L 94.3125 120.152344 L 94.816406 119.441406 L 95.320312 118.726562 L 95.828125 118.011719 L 96.332031 117.296875 L 97.339844 115.851562 L 97.847656 115.128906 L 98.855469 113.675781 L 99.863281 112.214844 L 100.371094 111.484375 L 101.882812 109.28125 L 102.390625 108.542969 L 103.902344 106.328125 L 104.40625 105.585938 L 104.914062 104.847656 L 105.417969 104.105469 L 105.921875 103.367188 L 106.929688 101.882812 L 107.4375 101.144531 L 107.941406 100.402344 L 108.445312 99.664062 L 108.949219 98.921875 L 109.457031 98.183594 L 110.96875 95.96875 L 111.472656 95.234375 L 111.980469 94.5 L 112.484375 93.765625 L 113.492188 92.304688 L 114 91.574219 L 115.007812 90.121094 L 116.015625 88.675781 L 116.523438 87.953125 L 118.035156 85.808594 L 118.539062 85.097656 L 119.046875 84.390625 L 120.054688 82.984375 L 120.558594 82.285156 L 121.066406 81.589844 L 121.570312 80.894531 L 122.578125 79.519531 L 123.082031 78.835938 L 123.589844 78.160156 L 124.09375 77.484375 L 124.597656 76.8125 L 125.101562 76.144531 L 125.605469 75.480469 L 126.113281 74.820312 L 126.617188 74.164062 L 127.121094 73.511719 L 127.625 72.867188 L 128.132812 72.222656 L 128.636719 71.585938 L 129.140625 70.953125 L 129.644531 70.324219 L 130.148438 69.699219 L 130.65625 69.082031 L 131.160156 68.46875 L 131.664062 67.859375 L 132.167969 67.257812 L 132.675781 66.660156 L 133.179688 66.066406 L 133.683594 65.480469 L 134.1875 64.898438 L 134.691406 64.324219 L 135.199219 63.753906 L 135.703125 63.191406 L 136.207031 62.632812 L 136.710938 62.078125 L 137.214844 61.535156 L 137.722656 60.992188 L 138.226562 60.460938 L 138.730469 59.933594 L 139.234375 59.414062 L 139.742188 58.898438 L 140.246094 58.390625 L 140.75 57.890625 L 141.253906 57.394531 L 141.757812 56.910156 L 142.265625 56.429688 L 142.769531 55.953125 L 143.273438 55.488281 L 143.777344 55.027344 L 144.285156 54.578125 L 144.789062 54.132812 L 145.292969 53.695312 L 145.796875 53.261719 L 146.300781 52.839844 L 146.808594 52.425781 L 147.3125 52.015625 L 147.816406 51.617188 L 148.320312 51.222656 L 148.824219 50.839844 L 149.332031 50.460938 L 149.835938 50.09375 L 150.339844 49.730469 L 150.84375 49.378906 L 151.351562 49.035156 L 151.855469 48.695312 L 152.359375 48.367188 L 152.863281 48.046875 L 153.367188 47.734375 L 153.875 47.429688 L 154.378906 47.132812 L 154.882812 46.847656 L 155.386719 46.566406 L 155.894531 46.296875 L 156.398438 46.03125 L 156.902344 45.777344 L 157.40625 45.535156 L 157.910156 45.296875 L 158.417969 45.070312 L 158.921875 44.851562 L 159.425781 44.640625 L 159.929688 44.4375 L 160.433594 44.242188 L 160.941406 44.058594 L 161.445312 43.882812 L 161.949219 43.71875 L 162.453125 43.558594 L 162.960938 43.410156 L 163.464844 43.269531 L 163.96875 43.140625 L 164.472656 43.015625 L 164.976562 42.902344 L 165.484375 42.800781 L 165.988281 42.703125 L 166.492188 42.617188 L 166.996094 42.539062 L 167.503906 42.472656 L 168.007812 42.414062 L 168.511719 42.363281 L 169.015625 42.324219 L 169.519531 42.289062 L 170.027344 42.269531 L 170.53125 42.253906 L 171.035156 42.25 L 171.539062 42.253906 L 172.042969 42.269531 L 172.550781 42.289062 L 173.054688 42.324219 L 173.558594 42.363281 L 174.0625 42.414062 L 174.570312 42.472656 L 175.074219 42.539062 L 175.578125 42.617188 L 176.082031 42.703125 L 176.585938 42.800781 L 177.09375 42.902344 L 177.597656 43.015625 L 178.101562 43.140625 L 178.605469 43.269531 L 179.113281 43.410156 L 179.617188 43.558594 L 180.121094 43.71875 L 180.625 43.882812 L 181.128906 44.058594 L 181.636719 44.242188 L 182.140625 44.4375 L 182.644531 44.640625 L 183.148438 44.851562 L 183.652344 45.070312 L 184.160156 45.296875 L 184.664062 45.535156 L 185.167969 45.777344 L 185.671875 46.03125 L 186.179688 46.296875 L 186.683594 46.566406 L 187.1875 46.847656 L 187.691406 47.132812 L 188.195312 47.429688 L 188.703125 47.734375 L 189.207031 48.046875 L 189.710938 48.367188 L 190.214844 48.695312 L 190.71875 49.035156 L 191.226562 49.378906 L 191.730469 49.730469 L 192.234375 50.09375 L 192.738281 50.460938 L 193.246094 50.839844 L 193.75 51.222656 L 194.253906 51.617188 L 194.757812 52.015625 L 195.261719 52.425781 L 195.769531 52.839844 L 196.273438 53.261719 L 196.777344 53.695312 L 197.28125 54.132812 L 197.789062 54.578125 L 198.292969 55.027344 L 198.796875 55.488281 L 199.300781 55.953125 L 199.804688 56.429688 L 200.3125 56.910156 L 200.816406 57.394531 L 201.320312 57.890625 L 201.824219 58.390625 L 202.328125 58.898438 L 202.835938 59.414062 L 203.339844 59.933594 L 203.84375 60.460938 L 204.347656 60.992188 L 204.855469 61.535156 L 205.359375 62.078125 L 205.863281 62.632812 L 206.367188 63.191406 L 206.871094 63.753906 L 207.378906 64.324219 L 207.882812 64.898438 L 208.386719 65.480469 L 208.890625 66.066406 L 209.398438 66.660156 L 209.902344 67.257812 L 210.40625 67.859375 L 210.910156 68.46875 L 211.414062 69.082031 L 211.921875 69.699219 L 212.425781 70.324219 L 212.929688 70.953125 L 213.433594 71.585938 L 213.9375 72.222656 L 214.445312 72.867188 L 214.949219 73.511719 L 215.453125 74.164062 L 215.957031 74.820312 L 216.464844 75.480469 L 216.96875 76.144531 L 217.472656 76.8125 L 217.976562 77.484375 L 218.480469 78.160156 L 218.988281 78.835938 L 219.492188 79.519531 L 220.5 80.894531 L 221.007812 81.589844 L 221.511719 82.285156 L 222.015625 82.984375 L 223.023438 84.390625 L 223.53125 85.097656 L 224.035156 85.808594 L 225.546875 87.953125 L 226.054688 88.675781 L 227.0625 90.121094 L 227.566406 90.847656 L 228.074219 91.574219 L 229.585938 93.765625 L 230.089844 94.5 L 230.597656 95.234375 L 231.101562 95.96875 L 232.109375 97.445312 L 232.617188 98.183594 L 233.121094 98.921875 L 233.625 99.664062 L 234.128906 100.402344 L 234.632812 101.144531 L 235.140625 101.882812 L 236.148438 103.367188 L 236.652344 104.105469 L 237.15625 104.847656 L 237.664062 105.585938 L 238.167969 106.328125 L 239.175781 107.804688 L 239.683594 108.542969 L 240.1875 109.28125 L 241.699219 111.484375 L 242.207031 112.214844 L 243.214844 113.675781 L 243.71875 114.402344 L 244.226562 115.128906 L 245.738281 117.296875 L 246.242188 118.011719 L 246.75 118.726562 L 247.253906 119.441406 L 247.757812 120.152344 L 248.261719 120.859375 L 248.765625 121.5625 L 249.273438 122.265625 L 249.777344 122.964844 L 250.785156 124.355469 L 251.292969 125.042969 L 251.796875 125.730469 L 252.300781 126.414062 L 253.308594 127.765625 L 253.816406 128.4375 L 254.320312 129.105469 L 254.824219 129.769531 L 255.328125 130.429688 L 255.835938 131.085938 L 256.339844 131.738281 L 257.347656 133.027344 L 257.851562 133.664062 L 258.359375 134.296875 L 258.863281 134.925781 L 259.367188 135.550781 L 259.871094 136.167969 L 260.375 136.78125 L 260.882812 137.390625 L 261.386719 137.992188 L 261.890625 138.589844 L 262.394531 139.183594 L 262.902344 139.769531 L 263.40625 140.351562 L 263.910156 140.925781 L 264.414062 141.496094 L 264.917969 142.058594 L 265.425781 142.617188 L 265.929688 143.171875 L 266.9375 144.257812 L 267.441406 144.789062 L 267.949219 145.316406 L 268.453125 145.835938 L 268.957031 146.351562 L 269.460938 146.859375 L 269.96875 147.359375 L 270.472656 147.855469 L 270.976562 148.339844 L 271.480469 148.820312 L 271.984375 149.296875 L 272.492188 149.761719 L 272.996094 150.222656 L 273.5 150.671875 L 274.003906 151.117188 L 274.511719 151.554688 L 275.015625 151.988281 L 275.519531 152.410156 L 276.023438 152.824219 L 276.527344 153.234375 L 277.035156 153.632812 L 277.539062 154.027344 L 278.042969 154.410156 L 278.546875 154.789062 L 279.050781 155.15625 L 279.558594 155.519531 L 280.0625 155.871094 L 280.566406 156.214844 L 281.070312 156.554688 L 281.578125 156.882812 L 282.082031 157.203125 L 282.585938 157.515625 L 283.089844 157.820312 L 283.59375 158.117188 L 284.101562 158.402344 L 284.605469 158.683594 L 285.109375 158.953125 L 285.613281 159.21875 L 286.121094 159.46875 L 286.625 159.714844 L 287.128906 159.953125 L 287.632812 160.179688 L 288.136719 160.398438 L 288.644531 160.609375 L 289.148438 160.8125 L 289.652344 161.007812 L 290.15625 161.191406 L 290.660156 161.367188 L 291.167969 161.53125 L 291.671875 161.691406 L 292.175781 161.839844 L 292.679688 161.980469 L 293.1875 162.109375 L 293.691406 162.234375 L 294.195312 162.347656 L 294.699219 162.449219 L 295.203125 162.546875 L 295.710938 162.632812 L 296.214844 162.710938 L 296.71875 162.777344 L 297.222656 162.835938 L 297.730469 162.886719 L 298.234375 162.925781 L 298.738281 162.960938 L 299.242188 162.980469 L 299.746094 162.996094 L 300.253906 163 L 558.183594 163 "/>
</svg>
