<?xml version="1.0" encoding="UTF-8"?>
<svg xmlns="http://www.w3.org/2000/svg" xmlns:xlink="http://www.w3.org/1999/xlink" width="600" height="200" viewBox="0 0 600 200">
<rect x="-60" y="-20" width="720" height="240" fill="rgb(100%, 100%, 100%)" fill-opacity="1"/>
<path fill-rule="nonzero" fill="rgb(100%, 100%, 100%)" fill-opacity="1" d="M 16 184 L 584 184 L 584 16 L 16 16 Z M 16 184 "/>
<path fill-rule="nonzero" fill="rgb(100%, 0%, 0%)" fill-opacity="1" d="M 55.917969 163 C 55.917969 155.210938 49.605469 148.898438 41.816406 148.898438 C 34.03125 148.898438 27.71875 155.210938 27.71875 163 C 27.71875 170.785156 34.03125 177.097656 41.816406 177.097656 C 49.605469 177.097656 55.917969 170.785156 55.917969 163 Z M 55.917969 163 "/>
<path fill-rule="nonzero" fill="rgb(100%, 0%, 0%)" fill-opacity="1" d="M 102.859375 163 C 102.859375 155.210938 96.546875 148.898438 88.761719 148.898438 C 80.972656 148.898438 74.660156 155.210938 74.660156 163 C 74.660156 170.785156 80.972656 177.097656 88.761719 177.097656 C 96.546875 177.097656 102.859375 170.785156 102.859375 163 Z M 102.859375 163 "/>
<path fill-rule="nonzero" fill="rgb(100%, 0%, 0%)" fill-opacity="1" d="M 149.800781 163 C 149.800781 155.210938 143.488281 148.898438 135.703125 148.898438 C 127.914062 148.898438 121.601562 155.210938 121.601562 163 C 121.601562 170.785156 127.914062 177.097656 135.703125 177.097656 C 143.488281 177.097656 149.800781 170.785156 149.800781 163 Z M 149.800781 163 "/>
<path fill-rule="nonzero" fill="rgb(100%, 0%, 0%)" fill-opacity="1" d="M 196.746094 160.992188 C 196.746094 153.207031 190.433594 146.894531 182.644531 146.894531 C 174.855469 146.894531 168.542969 153.207031 168.542969 160.992188 C 168.542969 168.78125 174.855469 175.09375 182.644531 175.09375 C 190.433594 175.09375 196.746094 168.78125 196.746094 160.992188 Z M 196.746094 160.992188 "/>
<path fill-rule="nonzero" fill="rgb(100%, 0%, 0%)" fill-opacity="1" d="M 243.6875 134.984375 C 243.6875 127.195312 237.375 120.882812 229.585938 120.882812 C 221.800781 120.882812 215.488281 127.195312 215.488281 134.984375 C 215.488281 142.769531 221.800781 149.082031 229.585938 149.082031 C 237.375 149.082031 243.6875 142.769531 243.6875 134.984375 Z M 243.6875 134.984375 "/>
<path fill-rule="nonzero" fill="rgb(100%, 0%, 0%)" fill-opacity="1" d="M 290.628906 99.746094 C 290.628906 91.957031 284.316406 85.644531 276.527344 85.644531 C 268.742188 85.644531 262.429688 91.957031 262.429688 99.746094 C 262.429688 107.53125 268.742188 113.84375 276.527344 113.84375 C 284.316406 113.84375 290.628906 107.53125 290.628906 99.746094 Z M 290.628906 99.746094 "/>
<path fill-rule="nonzero" fill="rgb(100%, 0%, 0%)" fill-opacity="1" d="M 337.570312 65.125 C 337.570312 57.335938 331.257812 51.023438 323.472656 51.023438 C 315.683594 51.023438 309.371094 57.335938 309.371094 65.125 C 309.371094 72.910156 315.683594 79.222656 323.472656 79.222656 C 331.257812 79.222656 337.570312 72.910156 337.570312 65.125 Z M 337.570312 65.125 "/>
<path fill-rule="nonzero" fill="rgb(100%, 0%, 0%)" fill-opacity="1" d="M 384.511719 42.628906 C 384.511719 34.839844 378.199219 28.527344 370.414062 28.527344 C 362.625 28.527344 356.3125 34.839844 356.3125 42.628906 C 356.3125 50.414062 362.625 56.726562 370.414062 56.726562 C 378.199219 56.726562 384.511719 50.414062 384.511719 42.628906 Z M 384.511719 42.628906 "/>
<path fill-rule="nonzero" fill="rgb(100%, 0%, 0%)" fill-opacity="1" d="M 431.457031 159.121094 C 431.457031 151.335938 425.144531 145.023438 417.355469 145.023438 C 409.566406 145.023438 403.253906 151.335938 403.253906 159.121094 C 403.253906 166.910156 409.566406 173.222656 417.355469 173.222656 C 425.144531 173.222656 431.457031 166.910156 431.457031 159.121094 Z M 431.457031 159.121094 "/>
<path fill-rule="nonzero" fill="rgb(100%, 0%, 0%)" fill-opacity="1" d="M 478.398438 163 C 478.398438 155.210938 472.085938 148.898438 464.296875 148.898438 C 456.511719 148.898438 450.199219 155.210938 450.199219 163 C 450.199219 170.785156 456.511719 177.097656 464.296875 177.097656 C 472.085938 177.097656 478.398438 170.785156 478.398438 163 Z M 478.398438 163 "/>
<path fill-rule="nonzero" fill="rgb(100%, 0%, 0%)" fill-opacity="1" d="M 525.339844 163 C 525.339844 155.210938 519.027344 148.898438 511.238281 148.898438 C 503.453125 148.898438 497.140625 155.210938 497.140625 163 C 497.140625 170.785156 503.453125 177.097656 511.238281 177.097656 C 519.027344 177.097656 525.339844 170.785156 525.339844 163 Z M 525.339844 163 "/>
<path fill-rule="nonzero" fill="rgb(100%, 0%, 0%)" fill-opacity="1" d="M 572.28125 163 C 572.28125 155.210938 565.96875 148.898438 558.183594 148.898438 C 550.394531 148.898438 544.082031 155.210938 544.082031 163 C 544.082031 170.785156 550.394531 177.097656 558.183594 177.097656 C 565.96875 177.097656 572.28125 170.785156 572.28125 163 Z M 572.28125 163 "/>
<path fill="none" stroke-width="5" stroke-linecap="butt" stroke-linejoin="miter" stroke="rgb(100%, 0%, 0%)" stroke-opacity="1" stroke-miterlimit="2" d="M 41.816406 163 L 65.542969 163 L 66.046875 162.996094 L 66.550781 163 L 67.5625 163 L 68.066406 162.996094 L 68.570312 163 L 164.472656 163 L 164.976562 162.996094 L 167.503906 162.996094 L 169.015625 162.984375 L 169.519531 162.976562 L 170.027344 162.96875 L 170.53125 162.957031 L 171.035156 162.941406 L 171.539062 162.921875 L 172.042969 162.898438 L 172.550781 162.867188 L 173.054688 162.832031 L 173.558594 162.792969 L 174.0625 162.746094 L 174.570312 162.691406 L 175.074219 162.632812 L 175.578125 162.566406 L 176.082031 162.492188 L 176.585938 162.414062 L 177.09375 162.324219 L 177.597656 162.234375 L 178.101562 162.136719 L 178.605469 162.03125 L 179.113281 161.917969 L 179.617188 161.804688 L 180.625 161.554688 L 181.128906 161.421875 L 181.636719 161.285156 L 182.140625 161.140625 L 182.644531 160.992188 L 183.148438 160.839844 L 183.652344 160.683594 L 184.160156 160.523438 L 184.664062 160.355469 L 185.671875 160.011719 L 186.179688 159.832031 L 186.683594 159.648438 L 187.1875 159.460938 L 187.691406 159.269531 L 188.195312 159.074219 L 188.703125 158.875 L 189.710938 158.46875 L 190.71875 158.046875 L 191.226562 157.828125 L 191.730469 157.609375 L 192.234375 157.386719 L 192.738281 157.160156 L 193.246094 156.929688 L 193.75 156.699219 L 194.253906 156.464844 L 194.757812 156.226562 L 195.261719 155.984375 L 195.769531 155.742188 L 196.273438 155.496094 L 197.28125 154.996094 L 197.789062 154.738281 L 198.292969 154.484375 L 199.300781 153.960938 L 199.804688 153.695312 L 200.3125 153.429688 L 201.320312 152.890625 L 201.824219 152.617188 L 202.328125 152.339844 L 202.835938 152.0625 L 203.84375 151.5 L 204.347656 151.214844 L 204.855469 150.929688 L 205.863281 150.351562 L 206.367188 150.058594 L 206.871094 149.761719 L 207.378906 149.46875 L 207.882812 149.167969 L 208.386719 148.871094 L 208.890625 148.566406 L 209.398438 148.265625 L 209.902344 147.960938 L 211.414062 147.035156 L 211.921875 146.722656 L 212.425781 146.410156 L 213.9375 145.460938 L 214.445312 145.140625 L 215.453125 144.5 L 215.957031 144.175781 L 216.464844 143.851562 L 218.480469 142.539062 L 218.988281 142.207031 L 219.492188 141.875 L 220.5 141.203125 L 221.007812 140.867188 L 221.511719 140.53125 L 223.023438 139.511719 L 223.53125 139.167969 L 225.042969 138.136719 L 225.546875 137.789062 L 226.054688 137.441406 L 226.558594 137.09375 L 227.0625 136.742188 L 227.566406 136.394531 L 228.074219 136.042969 L 228.578125 135.691406 L 229.082031 135.335938 L 229.585938 134.984375 L 230.089844 134.628906 L 230.597656 134.273438 L 231.101562 133.914062 L 231.605469 133.558594 L 232.109375 133.199219 L 232.617188 132.839844 L 233.625 132.121094 L 234.632812 131.394531 L 235.140625 131.03125 L 236.148438 130.304688 L 236.652344 129.9375 L 237.15625 129.574219 L 237.664062 129.207031 L 238.167969 128.839844 L 238.671875 128.46875 L 239.175781 128.101562 L 239.683594 127.730469 L 240.1875 127.363281 L 241.699219 126.25 L 242.207031 125.875 L 242.710938 125.503906 L 243.214844 125.128906 L 243.71875 124.757812 L 244.226562 124.382812 L 244.730469 124.007812 L 245.234375 123.628906 L 246.242188 122.878906 L 246.75 122.5 L 247.253906 122.125 L 248.765625 120.988281 L 249.273438 120.609375 L 249.777344 120.230469 L 250.28125 119.847656 L 250.785156 119.46875 L 251.292969 119.085938 L 251.796875 118.707031 L 253.308594 117.558594 L 253.816406 117.175781 L 255.328125 116.027344 L 255.835938 115.640625 L 256.84375 114.875 L 257.851562 114.101562 L 258.359375 113.71875 L 260.375 112.171875 L 260.882812 111.789062 L 261.386719 111.402344 L 261.890625 111.011719 L 262.394531 110.625 L 262.902344 110.238281 L 263.910156 109.464844 L 264.414062 109.074219 L 264.917969 108.6875 L 265.425781 108.300781 L 265.929688 107.910156 L 266.433594 107.523438 L 266.9375 107.132812 L 267.441406 106.746094 L 267.949219 106.359375 L 268.957031 105.578125 L 269.460938 105.191406 L 269.96875 104.800781 L 270.472656 104.414062 L 270.976562 104.023438 L 271.480469 103.636719 L 271.984375 103.246094 L 272.492188 102.855469 L 272.996094 102.46875 L 273.5 102.078125 L 274.003906 101.691406 L 274.511719 101.300781 L 275.015625 100.910156 L 275.519531 100.523438 L 276.023438 100.132812 L 276.527344 99.746094 L 277.035156 99.355469 L 277.539062 98.96875 L 278.042969 98.578125 L 278.546875 98.191406 L 279.050781 97.800781 L 279.558594 97.414062 L 280.0625 97.023438 L 281.070312 96.25 L 281.578125 95.859375 L 283.59375 94.3125 L 284.101562 93.925781 L 285.613281 92.765625 L 286.121094 92.378906 L 287.128906 91.605469 L 287.632812 91.222656 L 288.136719 90.835938 L 288.644531 90.449219 L 289.148438 90.066406 L 289.652344 89.679688 L 290.660156 88.914062 L 291.167969 88.53125 L 292.679688 87.382812 L 293.1875 87 L 294.195312 86.234375 L 294.699219 85.855469 L 295.203125 85.472656 L 295.710938 85.09375 L 297.222656 83.957031 L 297.730469 83.578125 L 298.738281 82.820312 L 299.242188 82.445312 L 299.746094 82.066406 L 300.253906 81.691406 L 302.269531 80.191406 L 302.777344 79.816406 L 303.785156 79.074219 L 304.289062 78.699219 L 304.796875 78.328125 L 305.300781 77.957031 L 305.804688 77.589844 L 306.308594 77.21875 L 306.8125 76.851562 L 307.320312 76.480469 L 308.328125 75.746094 L 308.832031 75.382812 L 309.339844 75.015625 L 311.355469 73.5625 L 311.863281 73.199219 L 313.878906 71.761719 L 314.386719 71.402344 L 315.898438 70.335938 L 316.40625 69.980469 L 316.910156 69.628906 L 317.414062 69.273438 L 317.917969 68.921875 L 318.421875 68.574219 L 318.929688 68.222656 L 320.441406 67.179688 L 320.949219 66.835938 L 322.460938 65.804688 L 322.964844 65.464844 L 323.472656 65.125 L 324.480469 64.445312 L 325.488281 63.773438 L 325.996094 63.441406 L 326.5 63.105469 L 327.003906 62.777344 L 327.507812 62.445312 L 328.015625 62.117188 L 329.023438 61.460938 L 330.03125 60.8125 L 330.539062 60.488281 L 331.546875 59.847656 L 332.554688 59.214844 L 333.0625 58.898438 L 334.070312 58.273438 L 334.574219 57.964844 L 335.082031 57.65625 L 335.585938 57.347656 L 336.59375 56.738281 L 337.097656 56.4375 L 337.605469 56.136719 L 339.117188 55.246094 L 339.625 54.953125 L 340.632812 54.375 L 341.640625 53.804688 L 342.148438 53.519531 L 342.652344 53.238281 L 343.660156 52.683594 L 344.164062 52.410156 L 344.671875 52.140625 L 345.679688 51.601562 L 346.183594 51.335938 L 346.691406 51.074219 L 348.203125 50.300781 L 348.707031 50.050781 L 349.214844 49.800781 L 350.222656 49.308594 L 350.726562 49.066406 L 351.234375 48.828125 L 352.242188 48.359375 L 352.746094 48.128906 L 353.25 47.90625 L 353.757812 47.679688 L 354.765625 47.242188 L 355.773438 46.820312 L 356.28125 46.613281 L 356.785156 46.410156 L 357.289062 46.210938 L 357.792969 46.015625 L 358.300781 45.824219 L 358.804688 45.636719 L 359.8125 45.269531 L 360.316406 45.097656 L 360.824219 44.925781 L 361.328125 44.757812 L 361.832031 44.59375 L 362.335938 44.4375 L 362.84375 44.28125 L 363.347656 44.132812 L 363.851562 43.988281 L 364.355469 43.851562 L 364.859375 43.71875 L 365.367188 43.589844 L 365.871094 43.464844 L 366.375 43.347656 L 366.878906 43.238281 L 367.382812 43.132812 L 367.890625 43.03125 L 368.394531 42.9375 L 368.898438 42.851562 L 369.402344 42.769531 L 369.910156 42.695312 L 370.414062 42.628906 L 370.917969 42.566406 L 371.421875 42.515625 L 371.925781 42.46875 L 372.433594 42.433594 L 372.9375 42.402344 L 373.441406 42.382812 L 373.945312 42.371094 L 374.453125 42.367188 L 374.957031 42.371094 L 375.460938 42.386719 L 375.964844 42.410156 L 376.46875 42.445312 L 376.976562 42.492188 L 377.480469 42.546875 L 377.984375 42.613281 L 378.488281 42.695312 L 378.992188 42.785156 L 379.5 42.890625 L 380.003906 43.007812 L 380.507812 43.136719 L 381.011719 43.28125 L 381.519531 43.441406 L 382.023438 43.617188 L 382.527344 43.8125 L 383.03125 44.019531 L 383.535156 44.246094 L 384.042969 44.496094 L 384.546875 44.761719 L 385.050781 45.046875 L 385.554688 45.355469 L 386.0625 45.6875 L 386.566406 46.046875 L 387.070312 46.429688 L 387.574219 46.839844 L 388.078125 47.28125 L 388.585938 47.753906 L 389.089844 48.261719 L 389.59375 48.800781 L 390.097656 49.382812 L 390.601562 50.007812 L 391.109375 50.675781 L 391.613281 51.394531 L 392.117188 52.167969 L 392.621094 52.996094 L 393.128906 53.894531 L 393.632812 54.863281 L 394.136719 55.910156 L 394.640625 57.050781 L 395.144531 58.289062 L 395.652344 59.644531 L 396.15625 61.128906 L 396.660156 62.769531 L 397.164062 64.589844 L 397.671875 66.625 L 398.175781 68.921875 L 398.679688 71.53125 L 399.183594 74.539062 L 399.6875 78.035156 L 400.195312 82.140625 L 400.699219 86.953125 L 401.203125 92.515625 L 401.707031 98.707031 L 402.210938 105.191406 L 402.71875 111.496094 L 403.222656 117.230469 L 403.726562 122.210938 L 404.230469 126.449219 L 404.738281 130.054688 L 405.242188 133.148438 L 405.746094 135.828125 L 406.25 138.179688 L 406.753906 140.261719 L 407.261719 142.125 L 407.765625 143.796875 L 408.269531 145.3125 L 408.773438 146.691406 L 409.28125 147.953125 L 409.785156 149.113281 L 410.289062 150.175781 L 410.792969 151.160156 L 411.296875 152.070312 L 411.804688 152.914062 L 412.308594 153.699219 L 412.8125 154.425781 L 413.316406 155.105469 L 413.820312 155.738281 L 414.328125 156.328125 L 414.832031 156.878906 L 415.335938 157.390625 L 415.839844 157.871094 L 416.347656 158.316406 L 416.851562 158.734375 L 417.355469 159.121094 L 417.859375 159.484375 L 418.363281 159.824219 L 418.871094 160.136719 L 419.375 160.429688 L 419.878906 160.699219 L 420.382812 160.949219 L 420.886719 161.179688 L 421.394531 161.394531 L 421.898438 161.589844 L 422.402344 161.769531 L 422.90625 161.929688 L 423.414062 162.078125 L 423.917969 162.214844 L 424.421875 162.332031 L 424.925781 162.441406 L 425.429688 162.535156 L 425.9375 162.617188 L 426.441406 162.691406 L 426.945312 162.753906 L 427.449219 162.804688 L 427.957031 162.847656 L 428.460938 162.882812 L 428.964844 162.914062 L 429.972656 162.953125 L 430.480469 162.964844 L 430.984375 162.976562 L 431.488281 162.984375 L 432.496094 162.992188 L 433.003906 162.996094 L 435.527344 162.996094 L 436.03125 163 L 442.089844 163 L 442.59375 162.996094 L 443.097656 162.996094 L 443.601562 163 L 467.832031 163 L 468.335938 162.996094 L 468.839844 162.996094 L 469.34375 163 L 558.183594 163 "/>
</svg>
