<?xml version="1.0" encoding="UTF-8"?>
<svg xmlns="http://www.w3.org/2000/svg" xmlns:xlink="http://www.w3.org/1999/xlink" width="600" height="200" viewBox="0 0 600 200">
<rect x="-60" y="-20" width="720" height="240" fill="rgb(100%, 100%, 100%)" fill-opacity="1"/>
<path fill-rule="nonzero" fill="rgb(100%, 100%, 100%)" fill-opacity="1" d="M 16 184 L 584 184 L 584 16 L 16 16 Z M 16 184 "/>
<path fill-rule="nonzero" fill="rgb(100%, 0%, 0%)" fill-opacity="1" d="M 55.917969 163 C 55.917969 155.210938 49.605469 148.898438 41.816406 148.898438 C 34.03125 148.898438 27.71875 155.210938 27.71875 163 C 27.71875 170.789062 34.03125 177.101562 41.816406 177.101562 C 49.605469 177.101562 55.917969 170.789062 55.917969 163 Z M 55.917969 163 "/>
<path fill-rule="nonzero" fill="rgb(100%, 0%, 0%)" fill-opacity="1" d="M 102.859375 132.363281 C 102.859375 124.574219 96.546875 118.261719 88.761719 118.261719 C 80.972656 118.261719 74.660156 124.574219 74.660156 132.363281 C 74.660156 140.148438 80.972656 146.460938 88.761719 146.460938 C 96.546875 146.460938 102.859375 140.148438 102.859375 132.363281 Z M 102.859375 132.363281 "/>
<path fill-rule="nonzero" fill="rgb(100%, 0%, 0%)" fill-opacity="1" d="M 149.800781 76.207031 C 149.800781 68.421875 143.488281 62.109375 135.703125 62.109375 C 127.914062 62.109375 121.601562 68.421875 121.601562 76.207031 C 121.601562 83.996094 127.914062 90.308594 135.703125 90.308594 C 143.488281 90.308594 149.800781 83.996094 149.800781 76.207031 Z M 149.800781 76.207031 "/>
<path fill-rule="nonzero" fill="rgb(100%, 0%, 0%)" fill-opacity="1" d="M 196.746094 60.078125 C 196.746094 52.289062 190.433594 45.976562 182.644531 45.976562 C 174.855469 45.976562 168.542969 52.289062 168.542969 60.078125 C 168.542969 67.863281 174.855469 74.175781 182.644531 74.175781 C 190.433594 74.175781 196.746094 67.863281 196.746094 60.078125 Z M 196.746094 60.078125 "/>
<path fill-rule="nonzero" fill="rgb(100%, 0%, 0%)" fill-opacity="1" d="M 243.6875 102.796875 C 243.6875 95.007812 237.375 88.695312 229.585938 88.695312 C 221.800781 88.695312 215.488281 95.007812 215.488281 102.796875 C 215.488281 110.582031 221.800781 116.898438 229.585938 116.898438 C 237.375 116.898438 243.6875 110.582031 243.6875 102.796875 Z M 243.6875 102.796875 "/>
<path fill-rule="nonzero" fill="rgb(100%, 0%, 0%)" fill-opacity="1" d="M 290.628906 154.507812 C 290.628906 146.71875 284.316406 140.40625 276.527344 140.40625 C 268.742188 140.40625 262.429688 146.71875 262.429688 154.507812 C 262.429688 162.292969 268.742188 168.605469 276.527344 168.605469 C 284.316406 168.605469 290.628906 162.292969 290.628906 154.507812 Z M 290.628906 154.507812 "/>
<path fill-rule="nonzero" fill="rgb(100%, 0%, 0%)" fill-opacity="1" d="M 337.570312 163 C 337.570312 155.210938 331.257812 148.898438 323.472656 148.898438 C 315.683594 148.898438 309.371094 155.210938 309.371094 163 C 309.371094 170.789062 315.683594 177.101562 323.472656 177.101562 C 331.257812 177.101562 337.570312 170.789062 337.570312 163 Z M 337.570312 163 "/>
<path fill-rule="nonzero" fill="rgb(100%, 0%, 0%)" fill-opacity="1" d="M 384.511719 163 C 384.511719 155.210938 378.199219 148.898438 370.414062 148.898438 C 362.625 148.898438 356.3125 155.210938 356.3125 163 C 356.3125 170.789062 362.625 177.101562 370.414062 177.101562 C 378.199219 177.101562 384.511719 170.789062 384.511719 163 Z M 384.511719 163 "/>
<path fill-rule="nonzero" fill="rgb(100%, 0%, 0%)" fill-opacity="1" d="M 431.457031 163 C 431.457031 155.210938 425.144531 148.898438 417.355469 148.898438 C 409.566406 148.898438 403.253906 155.210938 403.253906 163 C 403.253906 170.789062 409.566406 177.101562 417.355469 177.101562 C 425.144531 177.101562 431.457031 170.789062 431.457031 163 Z M 431.457031 163 "/>
<path fill-rule="nonzero" fill="rgb(100%, 0%, 0%)" fill-opacity="1" d="M 478.398438 163 C 478.398438 155.210938 472.085938 148.898438 464.296875 148.898438 C 456.511719 148.898438 450.199219 155.210938 450.199219 163 C 450.199219 170.789062 456.511719 177.101562 464.296875 177.101562 C 472.085938 177.101562 478.398438 170.789062 478.398438 163 Z M 478.398438 163 "/>
<path fill-rule="nonzero" fill="rgb(100%, 0%, 0%)" fill-opacity="1" d="M 525.339844 163 C 525.339844 155.210938 519.027344 148.898438 511.238281 148.898438 C 503.453125 148.898438 497.140625 155.210938 497.140625 163 C 497.140625 170.789062 503.453125 177.101562 511.238281 177.101562 C 519.027344 177.101562 525.339844 170.789062 525.339844 163 Z M 525.339844 163 "/>
<path fill-rule="nonzero" fill="rgb(100%, 0%, 0%)" fill-opacity="1" d="M 572.28125 163 C 572.28125 155.210938 565.96875 148.898438 558.183594 148.898438 C 550.394531 148.898438 544.082031 155.210938 544.082031 163 C 544.082031 170.789062 550.394531 177.101562 558.183594 177.101562 C 565.96875 177.101562 572.28125 170.789062 572.28125 163 Z M 572.28125 163 "/>
<path fill="none" stroke-width="5" stroke-linecap="butt" stroke-linejoin="miter" stroke="rgb(100%, 0%, 0%)" stroke-opacity="1" stroke-miterlimit="2" d="M 41.816406 163 L 42.324219 162.996094 L 42.828125 162.984375 L 43.332031 162.964844 L 43.835938 162.9375 L 44.34375 162.902344 L 44.847656 162.859375 L 45.351562 162.804688 L 45.855469 162.746094 L 46.359375 162.679688 L 46.867188 162.605469 L 47.371094 162.523438 L 47.875 162.433594 L 48.378906 162.332031 L 48.882812 162.226562 L 49.390625 162.113281 L 49.894531 161.992188 L 50.398438 161.863281 L 50.902344 161.722656 L 51.410156 161.578125 L 51.914062 161.425781 L 52.417969 161.265625 L 52.921875 161.097656 L 53.425781 160.921875 L 53.933594 160.738281 L 54.4375 160.546875 L 54.941406 160.351562 L 55.445312 160.144531 L 55.953125 159.929688 L 56.457031 159.710938 L 56.960938 159.480469 L 57.464844 159.246094 L 57.96875 159.003906 L 58.476562 158.753906 L 58.980469 158.496094 L 59.484375 158.230469 L 59.988281 157.960938 L 60.492188 157.679688 L 61 157.394531 L 61.503906 157.101562 L 62.007812 156.800781 L 62.511719 156.492188 L 63.019531 156.179688 L 63.523438 155.859375 L 64.027344 155.53125 L 64.53125 155.195312 L 65.035156 154.855469 L 65.542969 154.507812 L 66.046875 154.152344 L 66.550781 153.789062 L 67.054688 153.421875 L 67.5625 153.050781 L 68.066406 152.667969 L 68.570312 152.28125 L 69.074219 151.886719 L 69.578125 151.488281 L 70.085938 151.082031 L 70.589844 150.671875 L 71.09375 150.253906 L 71.597656 149.828125 L 72.101562 149.398438 L 72.609375 148.964844 L 73.113281 148.523438 L 74.121094 147.625 L 74.628906 147.164062 L 75.132812 146.699219 L 75.636719 146.230469 L 76.140625 145.757812 L 76.644531 145.277344 L 77.152344 144.792969 L 77.65625 144.300781 L 78.160156 143.804688 L 78.664062 143.304688 L 79.171875 142.800781 L 79.675781 142.289062 L 80.179688 141.773438 L 80.683594 141.253906 L 81.1875 140.730469 L 81.695312 140.199219 L 82.199219 139.667969 L 82.703125 139.128906 L 83.207031 138.585938 L 83.710938 138.039062 L 84.21875 137.492188 L 84.722656 136.9375 L 85.226562 136.378906 L 85.730469 135.816406 L 86.238281 135.25 L 86.742188 134.679688 L 87.246094 134.105469 L 87.75 133.527344 L 88.253906 132.945312 L 88.761719 132.363281 L 89.769531 131.183594 L 90.273438 130.589844 L 90.78125 129.996094 L 91.789062 128.792969 L 92.292969 128.1875 L 92.796875 127.578125 L 93.304688 126.96875 L 93.808594 126.355469 L 95.320312 124.503906 L 95.828125 123.878906 L 96.332031 123.257812 L 96.835938 122.628906 L 97.339844 122.003906 L 97.847656 121.375 L 99.359375 119.476562 L 99.863281 118.839844 L 100.371094 118.203125 L 100.875 117.566406 L 101.882812 116.285156 L 102.390625 115.644531 L 103.398438 114.363281 L 104.40625 113.074219 L 104.914062 112.433594 L 106.929688 109.855469 L 107.4375 109.210938 L 107.941406 108.566406 L 108.445312 107.925781 L 108.949219 107.28125 L 109.457031 106.636719 L 111.472656 104.074219 L 111.980469 103.433594 L 113.492188 101.523438 L 114 100.890625 L 115.007812 99.625 L 115.511719 98.996094 L 116.015625 98.371094 L 116.523438 97.742188 L 117.027344 97.121094 L 117.53125 96.496094 L 118.539062 95.261719 L 119.046875 94.644531 L 119.550781 94.03125 L 120.558594 92.8125 L 121.066406 92.207031 L 122.074219 91.003906 L 123.082031 89.816406 L 123.589844 89.226562 L 124.09375 88.636719 L 125.101562 87.472656 L 125.605469 86.894531 L 126.113281 86.320312 L 126.617188 85.75 L 127.121094 85.183594 L 127.625 84.621094 L 128.132812 84.0625 L 128.636719 83.507812 L 129.644531 82.414062 L 130.148438 81.871094 L 130.65625 81.332031 L 131.664062 80.269531 L 132.167969 79.746094 L 132.675781 79.226562 L 133.179688 78.710938 L 133.683594 78.199219 L 134.1875 77.695312 L 134.691406 77.195312 L 135.199219 76.699219 L 135.703125 76.207031 L 136.207031 75.722656 L 136.710938 75.242188 L 137.214844 74.769531 L 137.722656 74.300781 L 138.226562 73.835938 L 138.730469 73.375 L 139.234375 72.925781 L 139.742188 72.476562 L 140.246094 72.035156 L 140.75 71.601562 L 141.253906 71.171875 L 141.757812 70.746094 L 142.265625 70.328125 L 142.769531 69.917969 L 143.273438 69.511719 L 143.777344 69.113281 L 144.285156 68.71875 L 144.789062 68.332031 L 145.292969 67.949219 L 145.796875 67.578125 L 146.300781 67.210938 L 146.808594 66.847656 L 147.3125 66.492188 L 147.816406 66.144531 L 148.320312 65.804688 L 148.824219 65.46875 L 149.332031 65.140625 L 149.835938 64.820312 L 150.339844 64.507812 L 150.84375 64.199219 L 151.351562 63.898438 L 151.855469 63.605469 L 152.359375 63.320312 L 152.863281 63.039062 L 153.367188 62.769531 L 153.875 62.503906 L 154.378906 62.246094 L 154.882812 61.996094 L 155.386719 61.753906 L 155.894531 61.519531 L 156.398438 61.289062 L 156.902344 61.070312 L 157.40625 60.855469 L 157.910156 60.648438 L 158.417969 60.453125 L 158.921875 60.261719 L 159.425781 60.078125 L 159.929688 59.902344 L 160.433594 59.734375 L 160.941406 59.574219 L 161.445312 59.421875 L 161.949219 59.277344 L 162.453125 59.136719 L 162.960938 59.007812 L 163.464844 58.886719 L 163.96875 58.773438 L 164.472656 58.667969 L 164.976562 58.566406 L 165.484375 58.476562 L 165.988281 58.394531 L 166.492188 58.320312 L 166.996094 58.253906 L 167.503906 58.195312 L 168.007812 58.140625 L 168.511719 58.097656 L 169.015625 58.0625 L 169.519531 58.035156 L 170.027344 58.015625 L 170.53125 58.003906 L 171.035156 58 L 171.539062 58.003906 L 172.042969 58.015625 L 172.550781 58.035156 L 173.054688 58.0625 L 173.558594 58.097656 L 174.0625 58.140625 L 174.570312 58.195312 L 175.074219 58.253906 L 175.578125 58.320312 L 176.082031 58.394531 L 176.585938 58.476562 L 177.09375 58.566406 L 177.597656 58.667969 L 178.101562 58.773438 L 178.605469 58.886719 L 179.113281 59.007812 L 179.617188 59.136719 L 180.121094 59.277344 L 180.625 59.421875 L 181.128906 59.574219 L 181.636719 59.734375 L 182.140625 59.902344 L 182.644531 60.078125 L 183.148438 60.261719 L 183.652344 60.453125 L 184.160156 60.648438 L 184.664062 60.855469 L 185.167969 61.070312 L 185.671875 61.289062 L 186.179688 61.519531 L 186.683594 61.753906 L 187.1875 61.996094 L 187.691406 62.246094 L 188.195312 62.503906 L 188.703125 62.769531 L 189.207031 63.039062 L 189.710938 63.320312 L 190.214844 63.605469 L 190.71875 63.898438 L 191.226562 64.199219 L 191.730469 64.507812 L 192.234375 64.820312 L 192.738281 65.140625 L 193.246094 65.46875 L 193.75 65.804688 L 194.253906 66.144531 L 194.757812 66.492188 L 195.261719 66.847656 L 195.769531 67.210938 L 196.273438 67.578125 L 196.777344 67.949219 L 197.28125 68.332031 L 197.789062 68.71875 L 198.292969 69.113281 L 198.796875 69.511719 L 199.300781 69.917969 L 199.804688 70.328125 L 200.3125 70.746094 L 200.816406 71.171875 L 201.320312 71.601562 L 201.824219 72.035156 L 202.328125 72.476562 L 202.835938 72.925781 L 203.339844 73.375 L 203.84375 73.835938 L 204.347656 74.300781 L 204.855469 74.769531 L 205.359375 75.242188 L 205.863281 75.722656 L 206.367188 76.207031 L 206.871094 76.699219 L 207.378906 77.195312 L 207.882812 77.695312 L 208.386719 78.199219 L 208.890625 78.710938 L 209.398438 79.226562 L 209.902344 79.746094 L 210.40625 80.269531 L 211.414062 81.332031 L 211.921875 81.871094 L 212.425781 82.414062 L 213.433594 83.507812 L 213.9375 84.0625 L 214.445312 84.621094 L 214.949219 85.183594 L 215.453125 85.75 L 215.957031 86.320312 L 216.464844 86.894531 L 216.96875 87.472656 L 217.976562 88.636719 L 218.480469 89.226562 L 218.988281 89.816406 L 219.996094 91.003906 L 220.5 91.605469 L 221.007812 92.207031 L 221.511719 92.8125 L 222.519531 94.03125 L 223.023438 94.644531 L 223.53125 95.261719 L 224.539062 96.496094 L 225.042969 97.121094 L 225.546875 97.742188 L 226.054688 98.371094 L 226.558594 98.996094 L 227.0625 99.625 L 227.566406 100.257812 L 228.074219 100.890625 L 228.578125 101.523438 L 230.089844 103.433594 L 230.597656 104.074219 L 232.109375 105.996094 L 232.617188 106.636719 L 233.625 107.925781 L 234.128906 108.566406 L 234.632812 109.210938 L 235.140625 109.855469 L 237.15625 112.433594 L 237.664062 113.074219 L 238.671875 114.363281 L 239.175781 115.003906 L 239.683594 115.644531 L 241.195312 117.566406 L 241.699219 118.203125 L 242.207031 118.839844 L 242.710938 119.476562 L 243.71875 120.742188 L 244.226562 121.375 L 244.730469 122.003906 L 245.234375 122.628906 L 245.738281 123.257812 L 246.242188 123.878906 L 246.75 124.503906 L 248.261719 126.355469 L 248.765625 126.96875 L 249.273438 127.578125 L 249.777344 128.1875 L 250.28125 128.792969 L 250.785156 129.394531 L 251.292969 129.992188 L 251.796875 130.589844 L 252.300781 131.183594 L 253.308594 132.363281 L 253.816406 132.945312 L 254.320312 133.527344 L 254.824219 134.105469 L 255.328125 134.679688 L 255.835938 135.25 L 256.339844 135.816406 L 256.84375 136.378906 L 257.347656 136.9375 L 257.851562 137.492188 L 258.359375 138.039062 L 258.863281 138.585938 L 259.367188 139.128906 L 259.871094 139.667969 L 260.375 140.199219 L 260.882812 140.730469 L 261.386719 141.253906 L 261.890625 141.773438 L 262.394531 142.289062 L 262.902344 142.800781 L 263.40625 143.304688 L 263.910156 143.804688 L 264.414062 144.300781 L 264.917969 144.792969 L 265.425781 145.277344 L 265.929688 145.757812 L 266.433594 146.230469 L 266.9375 146.699219 L 267.441406 147.164062 L 267.949219 147.625 L 268.957031 148.523438 L 269.460938 148.964844 L 269.96875 149.398438 L 270.472656 149.828125 L 270.976562 150.253906 L 271.480469 150.671875 L 271.984375 151.082031 L 272.492188 151.488281 L 272.996094 151.886719 L 273.5 152.28125 L 274.003906 152.667969 L 274.511719 153.050781 L 275.015625 153.421875 L 275.519531 153.789062 L 276.023438 154.152344 L 276.527344 154.507812 L 277.035156 154.855469 L 277.539062 155.195312 L 278.042969 155.53125 L 278.546875 155.859375 L 279.050781 156.179688 L 279.558594 156.492188 L 280.0625 156.800781 L 280.566406 157.101562 L 281.070312 157.394531 L 281.578125 157.679688 L 282.082031 157.960938 L 282.585938 158.230469 L 283.089844 158.496094 L 283.59375 158.753906 L 284.101562 159.003906 L 284.605469 159.246094 L 285.109375 159.480469 L 285.613281 159.710938 L 286.121094 159.929688 L 286.625 160.144531 L 287.128906 160.351562 L 287.632812 160.546875 L 288.136719 160.738281 L 288.644531 160.921875 L 289.148438 161.097656 L 289.652344 161.265625 L 290.15625 161.425781 L 290.660156 161.578125 L 291.167969 161.722656 L 291.671875 161.863281 L 292.175781 161.992188 L 292.679688 162.113281 L 293.1875 162.226562 L 293.691406 162.332031 L 294.195312 162.433594 L 294.699219 162.523438 L 295.203125 162.605469 L 295.710938 162.679688 L 296.214844 162.746094 L 296.71875 162.804688 L 297.222656 162.859375 L 297.730469 162.902344 L 298.234375 162.9375 L 298.738281 162.964844 L 299.242188 162.984375 L 299.746094 162.996094 L 300.253906 163 L 558.183594 163 "/>
</svg>
